Coordinates
version=1
nRows=15
nColumns=46
inDegrees=yes

Units are S.I. units (second, meters, Newtons, ...)
Angles are in degrees.

endheader
time	pelvis_tilt	pelvis_list	pelvis_rotation	pelvis_tx	pelvis_ty	pelvis_tz	bb_angle	bb_tx	bb_ty	bb_tz	hip_flexion_r	hip_adduction_r	hip_rotation_r	knee_angle_r	knee_angle_r_beta	ankle_angle_r	subtalar_angle_r	mtp_angle_r	crank_angle_r	hip_flexion_l	hip_adduction_l	hip_rotation_l	knee_angle_l	knee_angle_l_beta	ankle_angle_l	subtalar_angle_l	mtp_angle_l	crank_angle_l	lumbar_extension	lumbar_bending	lumbar_rotation	arm_flex_r	arm_add_r	arm_rot_r	elbow_flex_r	pro_sup_r	wrist_flex_r	wrist_dev_r	arm_flex_l	arm_add_l	arm_rot_l	elbow_flex_l	pro_sup_l	wrist_flex_l	wrist_dev_l
      2.50500000	    -15.22656330	     -3.72329837	     -9.05997643	      0.05425297	      1.11585723	     -0.25985815	      0.00000000	      0.50000000	      0.00000000	      0.25000000	     76.14366617	      8.52873559	      4.43678207	     80.36659270	      1.40266165	     18.03338557	    -11.30490067	      0.00000000	      0.00000000	     52.82735403	    -10.54272964	      4.48346371	     69.54626246	      1.21381126	    -16.72254217	    -16.10736681	      0.00000000	      0.00000000	    -61.31318873	      3.80655664	      8.47199950	     89.74967329	    -15.11075272	     30.90184356	     65.67714510	     33.63687321	      0.00000000	      0.00000000	     82.95784974	    -33.28266876	     28.14423455	     62.28972365	     45.68687732	      0.00000000	      0.00000000
      2.51000000	    -15.41381522	     -3.75484964	     -8.80867986	      0.05434559	      1.11612096	     -0.26000920	      0.00000000	      0.50000000	      0.00000000	      0.25000000	     75.54997432	      8.28702022	      4.42981833	     78.56657816	      1.37124547	     17.13931171	    -11.35551458	      0.00000000	      0.00000000	     53.53414253	    -10.46136913	      4.59668597	     70.94941950	      1.23830097	    -16.09916749	    -16.20526464	      0.00000000	      0.00000000	    -61.36587315	      4.11540563	      8.41800269	     89.74787064	    -15.00166464	     30.26395898	     66.15531916	     34.50847112	      0.00000000	      0.00000000	     82.48837711	    -33.15348863	     26.69803465	     62.98252009	     45.58929003	      0.00000000	      0.00000000
      2.51500000	    -15.58751857	     -3.54655420	     -8.42510580	      0.05432498	      1.11620186	     -0.26017453	      0.00000000	      0.50000000	      0.00000000	      0.25000000	     74.98883362	      7.88863735	      4.66806849	     76.84690305	      1.34123148	     16.10928618	    -11.61074137	      0.00000000	      0.00000000	     54.23034231	    -10.03577681	      4.72837882	     72.30827924	      1.26201755	    -15.40626555	    -16.22193906	      0.00000000	      0.00000000	    -61.21860386	      4.33857307	      7.89579394	     89.75439426	    -14.93308797	     30.63250005	     65.97674195	     34.59040135	      0.00000000	      0.00000000	     82.65413453	    -33.73690251	     27.27672915	     63.07620049	     45.64095459	      0.00000000	      0.00000000
      2.52000000	    -15.68116040	     -3.38485673	     -8.08894578	      0.05450164	      1.11658160	     -0.26028922	      0.00000000	      0.50000000	      0.00000000	      0.25000000	     74.26388830	      7.50939541	      4.85639522	     75.08441407	      1.31047024	     15.20241652	    -11.58404548	      0.00000000	      0.00000000	     54.83110807	     -9.72603822	      4.79613687	     73.67708743	      1.28590776	    -14.58993202	    -16.05024184	      0.00000000	      0.00000000	    -61.25485638	      4.50803027	      7.53872388	     89.75399318	    -14.85800769	     30.30420841	     66.34585597	     34.36838000	      0.00000000	      0.00000000	     82.99938157	    -34.33587670	     28.26675949	     63.24357754	     45.80318251	      0.00000000	      0.00000000
      2.52500000	    -15.79581771	     -3.20376461	     -7.70925108	      0.05471893	      1.11697925	     -0.26032469	      0.00000000	      0.50000000	      0.00000000	      0.25000000	     73.48986154	      7.12146666	      5.06133665	     73.24669472	      1.27839599	     14.24230796	    -11.75966675	      0.00000000	      0.00000000	     55.49173324	     -9.36388109	      4.90836053	     75.05849617	      1.31001789	    -13.87999265	    -15.90951541	      0.00000000	      0.00000000	    -61.23503148	      4.70432449	      7.13385791	     89.75575879	    -14.83902105	     30.29337749	     66.44823307	     34.76039314	      0.00000000	      0.00000000	     82.95592844	    -34.56155753	     28.11692219	     63.60188808	     45.81774112	      0.00000000	      0.00000000
      2.53000000	    -15.91177100	     -2.96071195	     -7.36153421	      0.05496890	      1.11733450	     -0.26042838	      0.00000000	      0.50000000	      0.00000000	      0.25000000	     72.70048605	      6.70778676	      5.32759353	     71.40874241	      1.24631767	     13.27418260	    -11.82719514	      0.00000000	      0.00000000	     56.17776223	     -8.95134073	      5.01887281	     76.45162000	      1.33433249	    -13.20310310	    -15.72769249	      0.00000000	      0.00000000	    -61.20686410	      4.83316812	      6.70321494	     89.75482274	    -14.91310121	     30.27353463	     66.73664514	     34.73630163	      0.00000000	      0.00000000	     83.00491577	    -34.85556582	     28.27948709	     63.95940042	     45.90107739	      0.00000000	      0.00000000
      2.53500000	    -16.05239746	     -2.70394352	     -7.03633785	      0.05531814	      1.11770254	     -0.26053065	      0.00000000	      0.50000000	      0.00000000	      0.25000000	     71.88519645	      6.29790086	      5.62415806	     69.53561475	      1.21362542	     12.41682894	    -11.83020030	      0.00000000	      0.00000000	     56.90917199	     -8.55165992	      5.10505175	     77.83841277	      1.35853659	    -12.49335396	    -15.48836119	      0.00000000	      0.00000000	    -61.13311162	      4.96390200	      6.29367055	     89.75586116	    -14.95569341	     30.43830610	     66.93693994	     34.66823875	      0.00000000	      0.00000000	     82.96966465	    -35.11182929	     28.32343408	     64.25853676	     45.96107864	      0.00000000	      0.00000000
      2.54000000	    -16.07769654	     -2.47956974	     -6.66272810	      0.05561463	      1.11813946	     -0.26055837	      0.00000000	      0.50000000	      0.00000000	      0.25000000	     70.95420876	      5.85506045	      5.86086226	     67.70667913	      1.18170448	     11.36495417	    -11.84368381	      0.00000000	      0.00000000	     57.60137113	     -8.13100600	      5.29081663	     79.29001908	      1.38387190	    -11.97438185	    -15.12470741	      0.00000000	      0.00000000	    -61.17687303	      5.07100574	      5.90665494	     89.75209299	    -15.09450161	     30.39523794	     67.27987677	     34.35106727	      0.00000000	      0.00000000	     83.13282499	    -35.31599276	     28.70349170	     64.54998538	     46.08922363	      0.00000000	      0.00000000
      2.54500000	    -16.14496818	     -2.21255976	     -6.30171040	      0.05593173	      1.11846259	     -0.26061988	      0.00000000	      0.50000000	      0.00000000	      0.25000000	     70.03942363	      5.40997512	      6.13001703	     65.80882706	      1.14858071	     10.31100840	    -11.97523477	      0.00000000	      0.00000000	     58.37564447	     -7.68289941	      5.44035377	     80.74587404	      1.40928136	    -11.50463695	    -14.80721273	      0.00000000	      0.00000000	    -61.15280446	      5.16915142	      5.48503794	     89.74850242	    -15.18648423	     30.50385906	     67.70700598	     33.17423191	      0.00000000	      0.00000000	     83.28472894	    -35.56948396	     29.12945966	     64.76933463	     46.29921458	      0.00000000	      0.00000000
      2.55000000	    -16.18910268	     -1.80386063	     -5.96395104	      0.05634036	      1.11883629	     -0.26080467	      0.00000000	      0.50000000	      0.00000000	      0.25000000	     69.09282335	      4.88107980	      6.51253450	     63.94556404	      1.11606063	      9.39282213	    -11.73376428	      0.00000000	      0.00000000	     59.12628130	     -7.12875684	      5.45243447	     82.15910409	      1.43394688	    -11.15817694	    -14.63021823	      0.00000000	      0.00000000	    -61.10714308	      5.16188870	      5.00044970	     89.74533557	    -15.31278518	     30.55372515	     67.78767404	     33.10228267	      0.00000000	      0.00000000	     83.35996735	    -35.48636739	     29.15746916	     64.84426805	     46.32522844	      0.00000000	      0.00000000
      2.55500000	    -16.23310589	     -1.58891686	     -5.57434516	      0.05673943	      1.11895035	     -0.26080864	      0.00000000	      0.50000000	      0.00000000	      0.25000000	     68.13274702	      4.44500152	      6.68929271	     62.09722300	      1.08380100	      8.19267024	    -12.12118761	      0.00000000	      0.00000000	     59.98964740	     -6.70361981	      5.67487230	     83.68469953	      1.46057354	    -10.65231569	    -14.01821971	      0.00000000	      0.00000000	    -61.04669967	      5.29443825	      4.57548814	     89.74285354	    -15.46175132	     30.88224282	     67.96328694	     32.91452983	      0.00000000	      0.00000000	     83.40099706	    -35.63960514	     29.35048129	     65.04026062	     46.41039810	      0.00000000	      0.00000000
      2.56000000	    -16.26979113	     -1.13188814	     -5.27730530	      0.05721468	      1.11911199	     -0.26093866	      0.00000000	      0.50000000	      0.00000000	      0.25000000	     67.17955826	      3.90287856	      7.05233320	     60.26712101	      1.05185969	      7.24028129	    -11.85126315	      0.00000000	      0.00000000	     60.81733884	     -6.18906459	      5.56250439	     85.12442682	      1.48570152	    -10.47116068	    -13.91202737	      0.00000000	      0.00000000	    -60.95214239	      5.22123919	      4.08667284	     89.73708541	    -15.58558012	     30.91004896	     68.01775529	     32.86532558	      0.00000000	      0.00000000	     83.44381908	    -35.58320176	     29.44542255	     65.14035289	     46.44394291	      0.00000000	      0.00000000
      2.56500000	    -16.28077722	     -0.75435004	     -4.97135858	      0.05771763	      1.11919945	     -0.26101674	      0.00000000	      0.50000000	      0.00000000	      0.25000000	     66.18763227	      3.41084532	      7.31613188	     58.45569073	      1.02024427	      6.06230051	    -11.92273942	      0.00000000	      0.00000000	     61.67748809	     -5.73574728	      5.50963646	     86.60989887	      1.51162790	    -10.27676294	    -13.68423804	      0.00000000	      0.00000000	    -60.87118837	      5.17075769	      3.57485837	     89.73433966	    -15.71563615	     31.07330670	     68.06394968	     32.80599012	      0.00000000	      0.00000000	     83.48280791	    -35.61841935	     29.58013930	     65.27155905	     46.48982974	      0.00000000	      0.00000000
      2.57000000	    -16.38636232	     -0.55991951	     -4.76016006	      0.05825125	      1.11906993	     -0.26074232	      0.00000000	      0.50000000	      0.00000000	      0.25000000	     65.24876552	      3.17169025	      7.45992554	     56.58096971	      0.98752422	      4.56556038	    -12.75323587	      0.00000000	      0.00000000	     62.70786626	     -5.58549527	      5.51436191	     88.17102528	      1.53887470	     -9.94844814	    -13.14828100	      0.00000000	      0.00000000	    -60.74397225	      5.16594155	      3.14637121	     89.72856486	    -15.80495732	     31.61773819	     68.14527352	     32.49577826	      0.00000000	      0.00000000	     83.45316489	    -36.18482229	     30.10861935	     65.75884590	     46.67997075	      0.00000000	      0.00000000
      2.57500000	    -16.36614681	     -0.07415568	     -4.47894709	      0.05885077	      1.11901365	     -0.26093743	      0.00000000	      0.50000000	      0.00000000	      0.25000000	     64.25044114	      2.56827478	      7.73315494	     54.87804647	      0.95780260	      3.70063726	    -12.44034091	      0.00000000	      0.00000000	     63.56018611	     -5.10102683	      5.27329109	     89.62815304	      1.56430637	     -9.83168420	    -13.15250834	      0.00000000	      0.00000000	    -60.63955966	      5.04689299	      2.61487881	     89.71683303	    -15.93920823	     31.60014835	     68.15641836	     32.45936689	      0.00000000	      0.00000000	     83.48950322	    -36.10403859	     30.19040173	     65.80644136	     46.70103585	      0.00000000	      0.00000000
